<svg xmlns="http://www.w3.org/2000/svg" version="1.1" xmlns:xlink="http://www.w3.org/1999/xlink" xmlns:svgjs="http://svgjs.com/svgjs" width="50.651657" height="50.651657"><svg width="50.651657" height="50.651657" viewBox="0 0 50.651657 50.651657" fill="none" version="1.1" id="SvgjsSvg1004" sodipodi:docname="tere.svg" xmlns:inkscape="http://www.inkscape.org/namespaces/inkscape" xmlns:sodipodi="http://sodipodi.sourceforge.net/DTD/sodipodi-0.dtd" xmlns="http://www.w3.org/2000/svg" xmlns:svg="http://www.w3.org/2000/svg">
  <defs id="SvgjsDefs1003"></defs>
  <sodipodi:namedview id="SvgjsSodipodi:namedview1002" pagecolor="#ffffff" bordercolor="#000000" borderopacity="0.25" inkscape:showpageshadow="2" inkscape:pageopacity="0.0" inkscape:pagecheckerboard="0" inkscape:deskcolor="#d1d1d1"></sodipodi:namedview>
  <path d="m 48.581672,15.857972 -0.1265,-0.3083 -0.2349,0.2362 -4.6796,4.7044 -0.0893,0.0897 0.0321,0.1224 c 0.3912,1.4914 0.587,3.0324 0.587,4.6234 0,10.3264 -8.3935,18.72 -18.7199,18.72 -10.3514,0 -18.7447,-8.3937 -18.7447,-18.72 0,-1.6162 0.1959,-3.1819 0.58699,-4.6729 l 0.03211,-0.1224 -0.08924,-0.0897 -4.67957,-4.7044 -0.23575,-0.237 -0.12595,0.3097 c -1.19869998,2.9468 -1.87327598,6.1442 -1.87327598,9.5167 0,13.839 11.26558598,25.1047 25.10458598,25.1047 13.839,0 25.1047,-11.2657 25.1047,-25.1047 0,-3.3466 -0.6494,-6.5443 -1.8488,-9.4678 z m -7.6924,-0.9318 0.1498,0.2235 0.1903,-0.1903 4.2586,-4.2587 0.1349,-0.1348 -0.1135,-0.1532 c -4.5708,-6.16928 -11.9148,-10.19148598 -20.1836,-10.19148598 -8.2437,0 -15.5878,3.99715598 -20.15871,10.16668598 l -0.11353,0.1532 0.13485,0.1349 4.25869,4.2586 0.1902,0.1903 0.1499,-0.2235 c 2.8387,-4.2337 7.3658,-7.2433 12.6017,-8.07532 0.9539,-0.14672 1.9328,-0.22018 2.9369,-0.22018 1.0042,0 1.9832,0.07346 2.9371,0.22019 5.26,0.83195 9.7873,3.86601 12.6264,8.10011 z" fill="#75bf7a" stroke="#75bf7a" stroke-width="0.442372" id="SvgjsPath1001"></path>
  <path d="m 28.304672,26.136772 h 0.2212 v -0.2212 -23.0512 -0.22119 h -0.2212 -5.9423 -0.2212 v 0.22119 23.0512 0.2212 h 0.2212 z" fill="#75bf7a" stroke="#75bf7a" stroke-width="0.442372" id="SvgjsPath1000"></path>
</svg><style>@media (prefers-color-scheme: light) { :root { filter: none; } }
</style></svg>